<svg xmlns="http://www.w3.org/2000/svg" width="920" height="520" viewBox="0 0 920 520">
  <style>
    .title { font: 700 20px sans-serif; }
    .label { font: 600 14px sans-serif; }
    .note { font: 12px sans-serif; fill: #444; }
    .box { fill:#f8fafc; stroke:#0f172a; stroke-width:1.5; rx:8; }
    .arrow { stroke:#0f172a; stroke-width:1.5; marker-end:url(#arrow); fill:none; }
  </style>
  <defs>
    <marker id="arrow" markerWidth="10" markerHeight="10" refX="8" refY="3" orient="auto" markerUnits="strokeWidth">
      <path d="M0,0 L0,6 L9,3 z" fill="#0f172a"/>
    </marker>
  </defs>
  <text x="20" y="30" class="title">Basketball Stats - Clean Architecture</text>

  <!-- Client -->
  <rect x="40" y="80" width="180" height="60" class="box"/>
  <text x="60" y="115" class="label">Clients (M2M / API consumers)</text>

  <!-- Gin HTTP -->
  <rect x="280" y="70" width="220" height="80" class="box"/>
  <text x="300" y="100" class="label">HTTP Handlers (Gin)</text>
  <text x="300" y="120" class="note">routing, DTO binding, error mapping</text>

  <!-- Services -->
  <rect x="280" y="190" width="220" height="110" class="box"/>
  <text x="300" y="220" class="label">Services (business rules)</text>
  <text x="300" y="240" class="note">validation, normalization, orchestration</text>
  <text x="300" y="260" class="note">aggregates, transactions</text>

  <!-- Repositories -->
  <rect x="280" y="340" width="220" height="100" class="box"/>
  <text x="300" y="370" class="label">Repositories (pgx)</text>
  <text x="300" y="390" class="note">SQL↔domain mapping, error mapping</text>

  <!-- Postgres -->
  <rect x="580" y="340" width="240" height="100" class="box"/>
  <text x="600" y="370" class="label">PostgreSQL</text>
  <text x="600" y="390" class="note">migrations (goose), constraints, indexes</text>

  <!-- Arrows -->
  <line x1="220" y1="110" x2="280" y2="110" class="arrow"/>
  <line x1="390" y1="150" x2="390" y2="190" class="arrow"/>
  <line x1="390" y1="300" x2="390" y2="340" class="arrow"/>
  <line x1="500" y1="390" x2="580" y2="390" class="arrow"/>

  <!-- Health/Readiness -->
  <rect x="580" y="190" width="240" height="110" class="box"/>
  <text x="600" y="220" class="label">Observability</text>
  <text x="600" y="240" class="note">/live, /ready (Pinger)</text>
  <text x="600" y="260" class="note">structured logs (zerolog)</text>
</svg>
